<svg version="1.1" xmlns="http://www.w3.org/2000/svg" xmlns:xlink="http://www.w3.org/1999/xlink"
     viewBox="0 0 141.6 151.3" xml:space="preserve">
<style>
  .st0{fill:#714BEE;}
  .st1{fill:#4299F2;}
  .st2{fill:#02DCD5;}
  .st3{fill:#E6E7E9;}
</style>
<g>
  <g transform="translate(246, 10) scale(0.28)">
    <path class="st0" d="M-628,92.6c-9.5-3.7-18.9-7.6-28.4-11.1c-30.8-11.3-62.5-18-95.4-18c-4.3,0-8.7,0.4-13,1
      c-1.8,0.2-3.7,1.1-5.3,2.2c-4,2.7-7.3,2.9-10.1,0c-3.2-3.2-3.8-8-0.5-11.3c1.9-1.9,4.6-3.4,7.2-4
      c19.1-4.4,38.2-2.5,57.3-0.1c19.4,2.5,38.3,7.5,56.7,14.1c12,4.3,23.7,9.7,35.5,14.7c1.3,0.6,2.4,1.6,3.7,2.9
      C-622.8,86.4-625.4,89.5-628,92.6z"/>
    <path class="st1" d="M-627.8,92.8c2.3-3.3,4.9-6.3,7.6-9.6c1.1,0,2.2,0.1,3.1,0.5c20.5,10.5,40.1,22.5,56.5,38.9
      c6.3,6.3,12,13.5,16.4,21.2c11.6,20.2,4.1,39.5-14.1,50.6c-7.9,4.8-17.3,7.2-26.3,10.6c-2.3-3.6-4.3-7.1-6.4-10.9
      c8.1-3.4,16.7-5.7,24.5-9.7c14.4-7.4,18.3-21,10.9-35.4c-7-13.8-18.3-23.8-31-31.9C-599.8,108.4-613.8,100.9-627.8,92.8z"/>
    <path class="st2" d="M-584.8,204.9c-14.4,2.2-28.7,4.5-43.1,6.6c-12.6,1.9-25.2,3.4-37.8,5.5c-3.3,0.5-6.6,2.1-9.5,3.8
      c-3.6,2.2-3.7,5-0.4,7.6c3.8,3.1,7.9,6.1,12.1,8.5c15.8,9.2,31.6,18.5,47.7,27c48.1,25.3,96.3,50.2,144.5,75.3
      c1,0.5,2,1.2,2.7,2.6c-1.1-0.4-2.2-0.6-3.2-1.1c-49.8-23.4-99.7-46.6-149.2-70.4c-20.2-9.7-39.8-20.8-59.6-31.4
      c-2.3-1.3-4.5-3.1-6.4-4.9c-8.5-8.2-7.3-19.3,3.4-24.3c6.6-3.1,13.8-5.3,20.9-6.6c11.8-2.1,23.8-3.1,35.7-4.7
      c11.7-1.6,23.4-3.3,35.7-4.7C-588.8,197.8-586.8,201.3-584.8,204.9z"/>
  </g>
  <g>
    <path class="st3" d="M79.6,119.1c-0.4-2,0.3-3.3,2.1-3.9c2.7-0.9,5.2-0.6,7.6,1.2c-0.3,0.4-0.5,0.8-0.8,1.2
      c-1.7-1.6-3.7-1.7-5.7-1.3c-1.2,0.2-1.8,0.9-1.8,2s0.8,1.6,1.7,1.8c1.5,0.4,3.1,0.5,4.7,1c1.9,0.6,2.8,2.2,2.1,4
      c-0.2,0.7-0.8,1.3-1.3,1.7c-2.4,1.6-6.8,1-8.9-1.2c0.2-0.3,0.4-0.7,0.7-1.1c1.7,1.6,3.7,1.9,5.9,1.6c0.5-0.1,1.2-0.2,1.5-0.5
      c0.4-0.5,0.9-1.2,0.9-1.8c0-0.5-0.6-1.3-1.1-1.5c-1.2-0.4-2.6-0.6-3.9-0.9C81.6,121.1,80.1,120.8,79.6,119.1z"/>
    <path class="st3" d="M115.1,116c-0.7,0.1-1.3,0.2-1.9,0.4c-0.8,0.3-1.2,1-1.2,1.9s0.5,1.3,1.3,1.5c0.9,0.3,1.9,0.4,2.8,0.6
      s1.8,0.3,2.6,0.6c2.3,0.9,2.7,3.9,0.7,5.5c-2.3,1.8-7.2,1.3-9.2-1c0.2-0.3,0.4-0.6,0.7-1.1c1.6,1.6,3.6,1.9,5.7,1.7
      c0.5-0.1,1.2-0.2,1.5-0.5c0.5-0.5,0.9-1.2,1-1.9c0.1-0.8-0.5-1.3-1.2-1.5c-1.1-0.3-2.3-0.4-3.4-0.7c-0.9-0.2-1.9-0.4-2.7-0.9
      c-1.7-1-1.8-3.5-0.2-4.8c2.1-1.7,6.8-1.4,8.7,0.7c-0.2,0.3-0.4,0.6-0.7,1.1C118.4,116.3,116.9,115.9,115.1,116z"/>
    <path class="st3" d="M41.9,121.7c-0.1,1.9-0.1,3.7-0.1,5.6c-0.5,0-0.9,0-1.4,0c0-4.1,0-8.2,0-12.4c0.4,0,0.8,0,1.3,0
      c0,1.8,0,3.6,0,5.4c2.5,0,5,0,7.5,0c0-1.8,0-3.6,0-5.4c0.5,0,0.9,0,1.3,0c0,4.2,0,8.2,0,12.4c-0.4,0-0.8,0-1.3,0
      c0-1.8,0-3.7,0-5.6C46.7,121.7,44.4,121.7,41.9,121.7z"/>
    <path class="st3" d="M24.4,114.8c0.9,0,1.7,0,2.5,0c2.1,0,3.7,1.2,4.1,3c0.5,2-0.3,3.7-2.3,4.8c-0.1,0.1-0.2,0.1-0.4,0.2
      c0.9,1.5,1.9,2.9,2.8,4.4c-1,0.3-1.7,0.1-2.1-0.8c-0.1-0.2-0.3-0.4-0.4-0.6c-0.9-2.5-2.7-3.2-5.2-2.8c-0.8,0.1-1.6,0-2.5,0
      c0-0.4,0-0.8,0-1.3c2,0,4,0,6,0c2.5,0,3.7-2.3,2.6-4.3c-0.6-1-1.5-1.3-2.6-1.3c-2,0-4,0-6,0c0-0.5,0-0.8,0-1.3
      C22,114.8,23.1,114.8,24.4,114.8z"/>
    <path class="st3" d="M64.3,119.6c0.4,0.5,0.7,1,1.1,1.6c1.3-1.9,2.5-3.6,3.6-5.4c0.5-0.9,1.1-1.2,2.2-0.8
      c-0.4,0.7-0.9,1.3-1.3,2c-0.6,0.9-1.2,1.9-1.9,2.7c-1.7,1.9-2.3,4.1-2,6.6c0,0.3,0,0.7,0,1.1c-0.5,0-0.9,0-1.4,0
      c0-1.1-0.1-2.3,0-3.4c0.1-1-0.2-1.7-0.8-2.5c-1.5-2.1-2.9-4.2-4.3-6.5c1-0.2,1.6-0.2,2.1,0.8C62.5,117,63.4,118.3,64.3,119.6z"/>
    <path class="st3" d="M100.6,117.6c0,3.3,0,6.5,0,9.8c-0.4,0-0.8,0-1.3,0c0-4.1,0-8.2,0-12.4c0.4,0,0.8,0,1.3,0
      C100.6,115.7,100.6,116.6,100.6,117.6z"/>
  </g>
</g>
</svg>
